<svg width="1282" height="223" viewBox="0 0 1282 223" fill="none" xmlns="http://www.w3.org/2000/svg">
<path d="M1350 59.6L1293.75 79.4366C1237.51 99.6457 1125 138.76 1012.5 173.871C900.004 208.608 787.504 238.41 675.004 213.548C562.503 189.058 450.002 108.972 337.502 79.4532C225.001 49.3757 112.501 69.8652 56.2514 79.458L0.00158295 89.4234L0 0.0233139L56.25 0.0223439C112.5 0.0213739 225 0.019434 337.5 0.017484C450 0.015544 562.5 0.013604 675 0.011658C787.5 0.00971495 900 0.00777198 1012.5 0.00582898C1125 0.00388598 1237.5 0.00194296 1293.75 0.00097096L1350 0V59.6Z" fill="#00CBA1"/>
</svg>
