<svg width="1265" height="223" viewBox="0 0 1265 223" fill="none" xmlns="http://www.w3.org/2000/svg">
<path d="M1333 59.6L1277.46 79.4366C1221.92 99.6457 1110.83 138.76 999.753 173.871C888.671 208.608 777.588 238.41 666.504 213.548C555.42 189.058 444.336 108.972 333.252 79.4532C222.168 49.3757 111.085 69.8652 55.543 79.458L0.00156301 89.4234L0 0.0233139L55.5416 0.0223439C111.084 0.0213739 222.167 0.019434 333.25 0.017484C444.334 0.015544 555.417 0.013604 666.5 0.011658C777.584 0.00971495 888.667 0.00777198 999.753 0.00582898C1110.83 0.00388598 1221.91 0.00194296 1277.46 0.00097096L1333 0V59.6Z" fill="#00CBA1"/>
</svg>
